<mxfile host="app.diagrams.net" modified="2022-09-08T01:17:51.471Z" agent="5.0 (Macintosh; Intel Mac OS X 10_15_7) AppleWebKit/537.36 (KHTML, like Gecko) Chrome/104.0.0.0 Safari/537.36" etag="mL2Snixj68Sp-znJ_nRl" version="16.5.6" type="github" pages="2">
  <diagram id="1UuHOkrzW4ZKPIT_SU5a" name="Netflix">
    <mxGraphModel dx="946" dy="1714" grid="1" gridSize="10" guides="1" tooltips="1" connect="1" arrows="1" fold="1" page="1" pageScale="1" pageWidth="850" pageHeight="1100" math="0" shadow="0">
      <root>
        <mxCell id="0" />
        <mxCell id="1" parent="0" />
        <mxCell id="LzlZs2Re5ra_rzuUIAQd-14" style="edgeStyle=orthogonalEdgeStyle;rounded=0;orthogonalLoop=1;jettySize=auto;html=1;entryX=0;entryY=0.5;entryDx=0;entryDy=0;" edge="1" parent="1" source="LzlZs2Re5ra_rzuUIAQd-2" target="LzlZs2Re5ra_rzuUIAQd-3">
          <mxGeometry relative="1" as="geometry" />
        </mxCell>
        <mxCell id="LzlZs2Re5ra_rzuUIAQd-15" value="upload" style="edgeLabel;html=1;align=center;verticalAlign=middle;resizable=0;points=[];" vertex="1" connectable="0" parent="LzlZs2Re5ra_rzuUIAQd-14">
          <mxGeometry x="0.3667" relative="1" as="geometry">
            <mxPoint x="-37" as="offset" />
          </mxGeometry>
        </mxCell>
        <mxCell id="LzlZs2Re5ra_rzuUIAQd-17" style="edgeStyle=orthogonalEdgeStyle;rounded=0;orthogonalLoop=1;jettySize=auto;html=1;entryX=0;entryY=0.5;entryDx=0;entryDy=0;" edge="1" parent="1" source="LzlZs2Re5ra_rzuUIAQd-2" target="LzlZs2Re5ra_rzuUIAQd-16">
          <mxGeometry relative="1" as="geometry" />
        </mxCell>
        <mxCell id="LzlZs2Re5ra_rzuUIAQd-20" style="edgeStyle=orthogonalEdgeStyle;rounded=0;orthogonalLoop=1;jettySize=auto;html=1;entryX=0;entryY=0.5;entryDx=0;entryDy=0;" edge="1" parent="1" source="LzlZs2Re5ra_rzuUIAQd-2" target="LzlZs2Re5ra_rzuUIAQd-19">
          <mxGeometry relative="1" as="geometry">
            <Array as="points">
              <mxPoint x="260" y="230" />
              <mxPoint x="260" y="390" />
            </Array>
          </mxGeometry>
        </mxCell>
        <mxCell id="LzlZs2Re5ra_rzuUIAQd-21" value="release" style="edgeLabel;html=1;align=center;verticalAlign=middle;resizable=0;points=[];" vertex="1" connectable="0" parent="LzlZs2Re5ra_rzuUIAQd-20">
          <mxGeometry x="0.3722" y="3" relative="1" as="geometry">
            <mxPoint y="1" as="offset" />
          </mxGeometry>
        </mxCell>
        <mxCell id="LzlZs2Re5ra_rzuUIAQd-24" style="edgeStyle=orthogonalEdgeStyle;rounded=0;orthogonalLoop=1;jettySize=auto;html=1;entryX=0;entryY=0.5;entryDx=0;entryDy=0;" edge="1" parent="1" source="LzlZs2Re5ra_rzuUIAQd-2" target="LzlZs2Re5ra_rzuUIAQd-23">
          <mxGeometry relative="1" as="geometry">
            <Array as="points">
              <mxPoint x="260" y="230" />
              <mxPoint x="260" y="490" />
            </Array>
          </mxGeometry>
        </mxCell>
        <mxCell id="LzlZs2Re5ra_rzuUIAQd-30" style="edgeStyle=orthogonalEdgeStyle;rounded=0;orthogonalLoop=1;jettySize=auto;html=1;entryX=0;entryY=0.5;entryDx=0;entryDy=0;" edge="1" parent="1" source="LzlZs2Re5ra_rzuUIAQd-2" target="LzlZs2Re5ra_rzuUIAQd-28">
          <mxGeometry relative="1" as="geometry">
            <Array as="points">
              <mxPoint x="260" y="230" />
              <mxPoint x="260" y="310" />
            </Array>
          </mxGeometry>
        </mxCell>
        <mxCell id="LzlZs2Re5ra_rzuUIAQd-31" value="register / login" style="edgeLabel;html=1;align=center;verticalAlign=middle;resizable=0;points=[];" vertex="1" connectable="0" parent="LzlZs2Re5ra_rzuUIAQd-30">
          <mxGeometry x="0.3032" y="1" relative="1" as="geometry">
            <mxPoint as="offset" />
          </mxGeometry>
        </mxCell>
        <mxCell id="LzlZs2Re5ra_rzuUIAQd-2" value="Client" style="rounded=0;whiteSpace=wrap;html=1;" vertex="1" parent="1">
          <mxGeometry x="110" y="200" width="120" height="60" as="geometry" />
        </mxCell>
        <mxCell id="LzlZs2Re5ra_rzuUIAQd-6" style="edgeStyle=orthogonalEdgeStyle;rounded=0;orthogonalLoop=1;jettySize=auto;html=1;" edge="1" parent="1" source="LzlZs2Re5ra_rzuUIAQd-3" target="LzlZs2Re5ra_rzuUIAQd-5">
          <mxGeometry relative="1" as="geometry" />
        </mxCell>
        <mxCell id="LzlZs2Re5ra_rzuUIAQd-10" style="edgeStyle=orthogonalEdgeStyle;rounded=0;orthogonalLoop=1;jettySize=auto;html=1;" edge="1" parent="1" source="LzlZs2Re5ra_rzuUIAQd-3" target="LzlZs2Re5ra_rzuUIAQd-9">
          <mxGeometry relative="1" as="geometry" />
        </mxCell>
        <mxCell id="LzlZs2Re5ra_rzuUIAQd-3" value="Upload Service" style="rounded=0;whiteSpace=wrap;html=1;" vertex="1" parent="1">
          <mxGeometry x="460" y="200" width="120" height="60" as="geometry" />
        </mxCell>
        <mxCell id="LzlZs2Re5ra_rzuUIAQd-4" value="Netflix :&amp;nbsp;&lt;br&gt;- upload video&lt;br&gt;- get video metadata&lt;br&gt;- stream video" style="text;html=1;strokeColor=none;fillColor=none;align=center;verticalAlign=middle;whiteSpace=wrap;rounded=0;" vertex="1" parent="1">
          <mxGeometry x="100" y="-50" width="140" height="80" as="geometry" />
        </mxCell>
        <mxCell id="LzlZs2Re5ra_rzuUIAQd-5" value="RDBMS" style="shape=cylinder3;whiteSpace=wrap;html=1;boundedLbl=1;backgroundOutline=1;size=15;" vertex="1" parent="1">
          <mxGeometry x="660" y="190" width="60" height="80" as="geometry" />
        </mxCell>
        <mxCell id="LzlZs2Re5ra_rzuUIAQd-7" value="users&lt;br&gt;video metadata&lt;br&gt;subscription&lt;br&gt;" style="text;html=1;align=center;verticalAlign=middle;resizable=0;points=[];autosize=1;strokeColor=none;fillColor=none;" vertex="1" parent="1">
          <mxGeometry x="740" y="205" width="100" height="50" as="geometry" />
        </mxCell>
        <mxCell id="LzlZs2Re5ra_rzuUIAQd-8" value="blob storage" style="shape=cylinder3;whiteSpace=wrap;html=1;boundedLbl=1;backgroundOutline=1;size=15;" vertex="1" parent="1">
          <mxGeometry x="660" y="60" width="60" height="80" as="geometry" />
        </mxCell>
        <mxCell id="LzlZs2Re5ra_rzuUIAQd-11" style="edgeStyle=orthogonalEdgeStyle;rounded=0;orthogonalLoop=1;jettySize=auto;html=1;entryX=0;entryY=0.5;entryDx=0;entryDy=0;entryPerimeter=0;" edge="1" parent="1" source="LzlZs2Re5ra_rzuUIAQd-9" target="LzlZs2Re5ra_rzuUIAQd-8">
          <mxGeometry relative="1" as="geometry" />
        </mxCell>
        <mxCell id="LzlZs2Re5ra_rzuUIAQd-9" value="Encoder Service" style="rounded=0;whiteSpace=wrap;html=1;" vertex="1" parent="1">
          <mxGeometry x="460" y="70" width="120" height="60" as="geometry" />
        </mxCell>
        <mxCell id="LzlZs2Re5ra_rzuUIAQd-18" style="edgeStyle=orthogonalEdgeStyle;rounded=0;orthogonalLoop=1;jettySize=auto;html=1;entryX=0.5;entryY=0;entryDx=0;entryDy=0;entryPerimeter=0;" edge="1" parent="1" source="LzlZs2Re5ra_rzuUIAQd-16" target="LzlZs2Re5ra_rzuUIAQd-8">
          <mxGeometry relative="1" as="geometry" />
        </mxCell>
        <mxCell id="LzlZs2Re5ra_rzuUIAQd-16" value="CDN" style="rounded=0;whiteSpace=wrap;html=1;" vertex="1" parent="1">
          <mxGeometry x="290" y="-160" width="120" height="60" as="geometry" />
        </mxCell>
        <mxCell id="LzlZs2Re5ra_rzuUIAQd-22" style="edgeStyle=orthogonalEdgeStyle;rounded=0;orthogonalLoop=1;jettySize=auto;html=1;" edge="1" parent="1" source="LzlZs2Re5ra_rzuUIAQd-19" target="LzlZs2Re5ra_rzuUIAQd-5">
          <mxGeometry relative="1" as="geometry" />
        </mxCell>
        <mxCell id="LzlZs2Re5ra_rzuUIAQd-19" value="Release Service" style="rounded=0;whiteSpace=wrap;html=1;" vertex="1" parent="1">
          <mxGeometry x="460" y="360" width="120" height="60" as="geometry" />
        </mxCell>
        <mxCell id="LzlZs2Re5ra_rzuUIAQd-25" style="edgeStyle=orthogonalEdgeStyle;rounded=0;orthogonalLoop=1;jettySize=auto;html=1;" edge="1" parent="1" source="LzlZs2Re5ra_rzuUIAQd-23" target="LzlZs2Re5ra_rzuUIAQd-5">
          <mxGeometry relative="1" as="geometry" />
        </mxCell>
        <mxCell id="LzlZs2Re5ra_rzuUIAQd-23" value="Display" style="rounded=0;whiteSpace=wrap;html=1;" vertex="1" parent="1">
          <mxGeometry x="460" y="460" width="120" height="60" as="geometry" />
        </mxCell>
        <mxCell id="LzlZs2Re5ra_rzuUIAQd-26" value="" style="shape=image;verticalLabelPosition=bottom;labelBackgroundColor=default;verticalAlign=top;aspect=fixed;imageAspect=0;image=https://docs.microsoft.com/en-us/azure/cdn/media/cdn-token-auth/cdn-token-auth-workflow2.png;" vertex="1" parent="1">
          <mxGeometry x="80" y="590" width="520" height="207" as="geometry" />
        </mxCell>
        <mxCell id="LzlZs2Re5ra_rzuUIAQd-27" value="Security / Permission" style="text;html=1;align=center;verticalAlign=middle;resizable=0;points=[];autosize=1;strokeColor=none;fillColor=none;" vertex="1" parent="1">
          <mxGeometry x="80" y="560" width="130" height="20" as="geometry" />
        </mxCell>
        <mxCell id="LzlZs2Re5ra_rzuUIAQd-29" style="edgeStyle=orthogonalEdgeStyle;rounded=0;orthogonalLoop=1;jettySize=auto;html=1;" edge="1" parent="1" source="LzlZs2Re5ra_rzuUIAQd-28" target="LzlZs2Re5ra_rzuUIAQd-5">
          <mxGeometry relative="1" as="geometry" />
        </mxCell>
        <mxCell id="LzlZs2Re5ra_rzuUIAQd-28" value="Authentication Service" style="rounded=0;whiteSpace=wrap;html=1;" vertex="1" parent="1">
          <mxGeometry x="460" y="280" width="120" height="60" as="geometry" />
        </mxCell>
      </root>
    </mxGraphModel>
  </diagram>
  <diagram id="6K4xTZCKuIYaHag2597y" name="Page-2">
    <mxGraphModel dx="946" dy="614" grid="1" gridSize="10" guides="1" tooltips="1" connect="1" arrows="1" fold="1" page="1" pageScale="1" pageWidth="850" pageHeight="1100" math="0" shadow="0">
      <root>
        <mxCell id="RMAXBdLTEzhpKo7fDF6d-0" />
        <mxCell id="RMAXBdLTEzhpKo7fDF6d-1" parent="RMAXBdLTEzhpKo7fDF6d-0" />
        <mxCell id="X0GpI5Xoe5MfGLWj6ShO-0" value="Consul Agent" style="whiteSpace=wrap;html=1;aspect=fixed;" vertex="1" parent="RMAXBdLTEzhpKo7fDF6d-1">
          <mxGeometry x="480" y="100" width="90" height="90" as="geometry" />
        </mxCell>
        <mxCell id="X0GpI5Xoe5MfGLWj6ShO-1" value="Consul Agent" style="whiteSpace=wrap;html=1;aspect=fixed;" vertex="1" parent="RMAXBdLTEzhpKo7fDF6d-1">
          <mxGeometry x="480" y="230" width="90" height="90" as="geometry" />
        </mxCell>
        <mxCell id="X0GpI5Xoe5MfGLWj6ShO-2" value="Consul Agent" style="whiteSpace=wrap;html=1;aspect=fixed;" vertex="1" parent="RMAXBdLTEzhpKo7fDF6d-1">
          <mxGeometry x="480" y="360" width="90" height="90" as="geometry" />
        </mxCell>
        <mxCell id="X0GpI5Xoe5MfGLWj6ShO-3" value="Consul Agent" style="whiteSpace=wrap;html=1;aspect=fixed;" vertex="1" parent="RMAXBdLTEzhpKo7fDF6d-1">
          <mxGeometry x="290" y="100" width="90" height="90" as="geometry" />
        </mxCell>
        <mxCell id="X0GpI5Xoe5MfGLWj6ShO-4" value="Consul Agent" style="whiteSpace=wrap;html=1;aspect=fixed;" vertex="1" parent="RMAXBdLTEzhpKo7fDF6d-1">
          <mxGeometry x="290" y="230" width="90" height="90" as="geometry" />
        </mxCell>
        <mxCell id="X0GpI5Xoe5MfGLWj6ShO-5" value="Consul Agent" style="whiteSpace=wrap;html=1;aspect=fixed;" vertex="1" parent="RMAXBdLTEzhpKo7fDF6d-1">
          <mxGeometry x="290" y="360" width="90" height="90" as="geometry" />
        </mxCell>
        <mxCell id="X0GpI5Xoe5MfGLWj6ShO-6" value="catalog" style="rounded=0;whiteSpace=wrap;html=1;" vertex="1" parent="RMAXBdLTEzhpKo7fDF6d-1">
          <mxGeometry x="340" y="70" width="60" height="60" as="geometry" />
        </mxCell>
      </root>
    </mxGraphModel>
  </diagram>
</mxfile>
